<svg id="Layer_1" data-name="Layer 1" xmlns="http://www.w3.org/2000/svg" viewBox="0 0 1536 768"><defs><style>.cls-1{fill:#fff;}</style></defs><title>Untitled-8</title><path class="cls-1" d="M585.94,236.55h-157a168.24,168.24,0,0,0-45,34.14q0,303.48,0,335.87v.14c.07,26.5,17.18,34.86,35.5,36.73h75.09V739h41l68.25-90.11H867.63a95.58,95.58,0,0,0,40.53-50.52V515.08H865.75V593q-4.74,7.46-9.47,14.91H590.71l-49.83,77.82L519,687.12v-75.3l-83.29,2.93L411.17,601.1v-314L433,266.59H588.69Z"/><path class="cls-1" d="M705.07,202.42h344.75v36.89H704"/><path class="cls-1" d="M705.07,138.25h344.75v36.89H704"/><path class="cls-1" d="M706.78,266.25H938.2v36.89H706.09"/><path class="cls-1" d="M639.64,425.43l283.08.45,82.93,82.93h25.45V421.33h78.23l30.89-30.9V58.74c.18-1.92,1.27-16.32-10-27.44s-25.26-9.92-27.21-9.74H663.28c-1.48-.3-18.69-3.46-31.83,9.28-13.64,13.23-10.3,31.36-10.05,32.6q-.66,179-1.33,357.89c13.49,4.27,25.88,3.22,29.58-2.73,2.73-4.38,3.23-15.4,1-20.49-.27-.62-1.38-3-.55-3.8.64-.62,2.12,0,2.27,0,5.39,1.87,284,2.61,284,2.41s-68-.71-286.25-2.44c-.49-3.36-1-6.71-1.46-10.07,0-.27,0-7.69,0-8s.16-53.72.16-54.15c0-9.89.76-249.49.79-259.42a13.75,13.75,0,0,1,.91-10.92,13.7,13.7,0,0,1,13.66-6.37c307.33.07,435.23.11,439.64,0h.05a11.89,11.89,0,0,1,7.2,2.48c2.94,2.63,1.19,9.24.94,10.26,0,0-.51,2.09,0,318.58v.06c0,13.17-10.67,16.8-21.84,17.23h-88.32q.93,37.78,1.84,75.55l7.29-1.36-74.64-71.46-279.89,1.33-5.81,0"/></svg>