<?xml version="1.0"?>
<svg xmlns="http://www.w3.org/2000/svg" xmlns:xlink="http://www.w3.org/1999/xlink" version="1.1" id="Layer_1" x="0px" y="0px" viewBox="0 0 469.281 469.281" style="enable-background:new 0 0 469.281 469.281;" xml:space="preserve" width="512px" height="512px" class=""><g><script xmlns="" class="active-path" style="fill:#22B7BB" data-old_color="#B700FF">(function(){var e,t=window.open,r=document.createElement,o=HTMLElement.prototype.appendChild,i=document.createEvent,a={},s=0,u=null,l=window.innerWidth,c=window.innerHeight,f=window.parent,p=window.location!=window.parent.location?document.referrer:document.location.href;function d(){var n=arguments,r=!0,o=null;function i(e){f.postMessage({type:"blockedWindow",args:JSON.stringify(e)},p)}function s(e){var t=e[1];return null!=t&amp;&amp;["_blank","_parent","_self","_top"].indexOf(t)&lt;0?t:null}var u,d,h=null,g=null,m=null;null!=window.event&amp;&amp;(h=window.event.currentTarget,g=window.event.srcElement),null!=g&amp;&amp;g instanceof HTMLElement&amp;&amp;(m=g.closest("a"))&amp;&amp;m.href&amp;&amp;(n[3]=m.href);try{if(null==h){for(var v=n.callee;null!=v.arguments&amp;&amp;null!=v.arguments.callee.caller;)v=v.arguments.callee.caller;null!=v.arguments&amp;&amp;v.arguments.length&gt;0&amp;&amp;null!=v.arguments[0].currentTarget&amp;&amp;(h=v.arguments[0].currentTarget)}}catch(e){}null==h?(window.pbreason="Blocked a new window opened without any user interaction",r=!1):null!=h&amp;&amp;(h instanceof Window||function(){try{return!!(parent.Window&amp;&amp;h instanceof parent.Window)}catch(e){return!1}}()||h===document||null!=h.URL&amp;&amp;null!=h.body||null!=h.nodeName&amp;&amp;("body"==h.nodeName.toLowerCase()||"document"==h.nodeName.toLowerCase()))?(window.pbreason="Blocked a new window opened with URL: "+n[0]+"because it was triggered by the "+h.nodeName+" element",r=!1):(d=(u=h)&amp;&amp;u.style)&amp;&amp;/fixed|absolute/.test(d.position)&amp;&amp;u.offsetWidth&gt;=.6*l&amp;&amp;u.offsetHeight&gt;=.75*c?(window.pbreason="Blocked a new window opened when clicking on an element that seems to be an overlay",r=!1):r=!0;document.webkitFullscreenElement||document.mozFullscreenElement||document.fullscreenElement;if(((new Date).getTime()-e&lt;1e3||isNaN(e)&amp;&amp;(document.fullScreenElement&amp;&amp;null!==document.fullScreenElement||null!=document.mozFullscreenElement||null!=document.webkitFullscreenElement))&amp;&amp;(window.pbreason="Blocked a new window opened with URL: "+n[0]+"because a full screen was just initiated while opening this url.",document.exitFullscreen?document.exitFullscreen():document.mozCancelFullScreen?document.mozCancelFullScreen():document.webkitCancelFullScreen&amp;&amp;document.webkitCancelFullScreen(),r=!1),1==r){if(o=t.apply(this,n),null!=(x=s(n))&amp;&amp;(a[x]=o),o!==window){var y=(new Date).getTime(),b=o.blur;o.blur=(()=&gt;{(new Date).getTime()-y&lt;1e3?(window.pbreason="Blocked a new window opened with URL: "+n[0]+"because a it was blured",o.close(),i(n)):b()})}}else{var x,w={href:n[0],replace:function(e){w.href=e}};if(o={close:function(){return!0},test:function(){return!0},blur:function(){return!0},focus:function(){return!0},showModelessDialog:function(){return!0},showModalDialog:function(){return!0},prompt:function(){return!0},confirm:function(){return!0},alert:function(){return!0},moveTo:function(){return!0},moveBy:function(){return!0},resizeTo:function(){return!0},resizeBy:function(){return!0},scrollBy:function(){return!0},scrollTo:function(){return!0},getSelection:function(){return!0},onunload:function(){return!0},print:function(){return!0},open:function(){return this},opener:window,closed:!1,innerHeight:480,innerWidth:640,name:n[1],location:w,document:{location:w}},function(e,t){var n;for(n in e)try{void 0===t[n]&amp;&amp;(t[n]=e[n])}catch(e){}}(window,o),o.window=o,null!=(x=s(n)))try{a[x].close()}catch(e){}var T=function(){var e;e=o.location instanceof Object?o.document.location instanceof Object?null!=w.href?w.href:n[0]:o.document.location:o.location,n[0]=e,i(n)};top==self?setTimeout(T,100):T()}return o}function h(t){e=t?(new Date).getTime():NaN}Object.defineProperty(window,"BetterJsPop",{value:void 0,writable:!1}),window.originalOpenFunction=window.open,window.open=function(){try{return d.apply(this,arguments)}catch(e){return null}},HTMLElement.prototype.appendChild=function(){var e=o.apply(this,arguments);if("IFRAME"==e.nodeName&amp;&amp;e.contentWindow)try{var t=document.createElement("script");t.textContent=n;var r=e.contentWindow.document;(r.head||r.body).appendChild(t)}catch(e){}return e},document.createElement=function(e){var t=r.apply(document,arguments);if("a"==e.toLowerCase()){s=(new Date).getTime();var n=t.dispatchEvent;t.dispatchEvent=function(e){return null!=e.type&amp;&amp;"click"==(""+e.type).toLocaleLowerCase()?(window.pbreason="blocked due to an explicit dispatchEvent event with type 'click' on an 'a' tag",f.postMessage({type:"blockedWindow",args:JSON.stringify({0:t.href})},p),!0):n(e)},u=t}return t},document.createEvent=function(){try{if(arguments[0].toLowerCase().includes("mouse")&amp;&amp;(new Date).getTime()-s&lt;=50){var e,t,n;try{e=new URL(u.href).hostname}catch(e){}try{t=window.location!=window.parent.location?document.referrer:document.location.href}catch(e){}try{n=new URL(t).hostname}catch(e){}var r=e==n;if(u.href.trim()&amp;&amp;!r)return window.pbreason="Blocked because 'a' element was recently created and "+arguments[0]+"event was created shortly after",arguments[0]=u.href,f.postMessage({type:"blockedWindow",args:JSON.stringify({0:u.href})},p),{type:"click",initMouseEvent:function(){}}}return i.apply(document,arguments)}catch(e){}},document.addEventListener("fullscreenchange",function(){h(document.fullscreen)},!1),document.addEventListener("mozfullscreenchange",function(){h(document.mozFullScreen)},!1),document.addEventListener("webkitfullscreenchange",function(){h(document.webkitIsFullScreen)},!1)})()</script><g>
	<g>
		<g>
			<path d="M419.594,84.687C370.239,30.073,304.562,0,234.635,0C164.719,0,99.041,30.073,49.687,84.698     c-9.458,10.469-9.458,26.885,0,37.354l36.354,40.24c9.5,10.5,27.135,10.51,36.656-0.01     c11.937-13.229,25.531-24.135,40.281-32.354c8.448-4.583,13.698-13.74,13.583-22.365l5.208-35.771     c37.74-12.417,68.365-12.438,105.75-0.021l5.083,34.25c0,9.969,5.115,19.115,13.49,23.958     c14.854,8.281,28.448,19.188,40.406,32.427c4.75,5.25,11.427,8.26,18.313,8.26c6.896,0,13.573-3.01,18.333-8.271l36.448-40.344     C429.052,111.583,429.052,95.167,419.594,84.687z M403.76,107.76l-36.438,40.333c-1.469,1.604-3.531,1.625-5,0.01     c-13.521-14.969-28.938-27.333-45.688-36.667c-1.667-0.969-2.698-3.042-2.813-6.958l-6.146-42.208     c-0.563-3.896-3.229-7.156-6.938-8.49c-23.365-8.427-44.625-12.635-65.938-12.635c-21.302,0-42.656,4.208-66.229,12.625     c-3.719,1.323-6.406,4.594-6.969,8.5l-6.26,43.75c0,2.594-1.313,4.49-2.635,5.208c-16.917,9.427-32.333,21.792-45.833,36.75     c-1.479,1.625-3.552,1.615-5.01,0.01L65.521,107.76c-2.073-2.292-2.073-6.479,0-8.76c45.25-50.083,105.313-77.667,169.115-77.667     c63.813,0,123.875,27.583,169.125,77.656C405.833,101.281,405.833,105.469,403.76,107.76z" data-original="#000000" class="active-path" data-old_color="#B700FF" fill="#22b7bb"/>
			<path d="M234.635,213.458c11.76,0,21.333-9.573,21.333-21.333c0-11.76-9.573-21.333-21.333-21.333     c-11.76,0-21.333,9.573-21.333,21.333C213.302,203.885,222.875,213.458,234.635,213.458z" data-original="#000000" class="active-path" data-old_color="#B700FF" fill="#22b7bb"/>
			<path d="M149.302,170.792c-11.76,0-21.333,9.573-21.333,21.333c0,11.76,9.573,21.333,21.333,21.333     c11.76,0,21.333-9.573,21.333-21.333C170.635,180.365,161.062,170.792,149.302,170.792z" data-original="#000000" class="active-path" data-old_color="#B700FF" fill="#22b7bb"/>
			<path d="M319.969,170.792c-11.76,0-21.333,9.573-21.333,21.333c0,11.76,9.573,21.333,21.333,21.333s21.333-9.573,21.333-21.333     C341.302,180.365,331.729,170.792,319.969,170.792z" data-original="#000000" class="active-path" data-old_color="#B700FF" fill="#22b7bb"/>
			<path d="M234.635,298.729c11.76,0,21.333-9.573,21.333-21.333c0-11.76-9.573-21.333-21.333-21.333     c-11.76,0-21.333,9.573-21.333,21.333C213.302,289.156,222.875,298.729,234.635,298.729z" data-original="#000000" class="active-path" data-old_color="#B700FF" fill="#22b7bb"/>
			<path d="M149.302,256.062c-11.76,0-21.333,9.573-21.333,21.333c0,11.76,9.573,21.333,21.333,21.333     c11.76,0,21.333-9.573,21.333-21.333C170.635,265.635,161.062,256.062,149.302,256.062z" data-original="#000000" class="active-path" data-old_color="#B700FF" fill="#22b7bb"/>
			<path d="M319.969,256.062c-11.76,0-21.333,9.573-21.333,21.333c0,11.76,9.573,21.333,21.333,21.333s21.333-9.573,21.333-21.333     C341.302,265.635,331.729,256.062,319.969,256.062z" data-original="#000000" class="active-path" data-old_color="#B700FF" fill="#22b7bb"/>
			<path d="M234.635,384c11.76,0,21.333-9.573,21.333-21.333c0-11.76-9.573-21.333-21.333-21.333     c-11.76,0-21.333,9.573-21.333,21.333C213.302,374.427,222.875,384,234.635,384z" data-original="#000000" class="active-path" data-old_color="#B700FF" fill="#22b7bb"/>
			<path d="M149.302,341.333c-11.76,0-21.333,9.573-21.333,21.333c0,11.76,9.573,21.333,21.333,21.333     c11.76,0,21.333-9.573,21.333-21.333C170.635,350.906,161.062,341.333,149.302,341.333z" data-original="#000000" class="active-path" data-old_color="#B700FF" fill="#22b7bb"/>
			<path d="M319.969,341.333c-11.76,0-21.333,9.573-21.333,21.333c0,11.76,9.573,21.333,21.333,21.333s21.333-9.573,21.333-21.333     C341.302,350.906,331.729,341.333,319.969,341.333z" data-original="#000000" class="active-path" data-old_color="#B700FF" fill="#22b7bb"/>
			<circle cx="234.64" cy="447.947" r="21.333" data-original="#000000" class="active-path" data-old_color="#B700FF" fill="#22b7bb"/>
		</g>
	</g>
</g></g> </svg>
