<svg xmlns="http://www.w3.org/2000/svg" width="120" height="26" viewBox="0 0 120 26">
    <g fill="none" fill-rule="evenodd">
        <path fill="#434343" d="M62.118 11.197c1.076-.134 2.15.27 2.996.909.008-.826-.006-1.653.008-2.478a3.17 3.17 0 0 0-.748-.308 7.276 7.276 0 0 0-3.9-.011c-1.163.33-2.23 1.035-2.912 2.03-.814 1.167-1.102 2.624-1.038 4.02.063 1.344.6 2.685 1.588 3.626.91.872 2.163 1.342 3.42 1.408 1.228.06 2.515-.103 3.588-.734-.01-.782.002-1.564-.006-2.346-.691.499-1.5.856-2.355.954-.866.064-1.794-.141-2.456-.722-.637-.536-.976-1.344-1.06-2.153-.114-1.034.038-2.155.695-3a3.093 3.093 0 0 1 2.18-1.195zm-8.868-6.48c-.729.082-1.35.736-1.331 1.47-.03.698.537 1.323 1.219 1.444.657.142 1.41-.133 1.747-.723a1.462 1.462 0 0 0-.182-1.683c-.35-.409-.924-.587-1.453-.508zm-7.222.33c-1.517 3.727-3.067 7.439-4.596 11.16-.319-.739-.603-1.492-.907-2.236-1.19-2.979-2.387-5.954-3.575-8.933h-3.817c-.002 5.037-.001 10.075 0 15.112.832-.001 1.665.001 2.499-.001-.002-2.255 0-4.51 0-6.766.008-1.628-.019-3.258.013-4.886.047.073.091.15.132.23 1.557 3.807 3.102 7.62 4.667 11.425.63-.01 1.259.01 1.887-.012 1.508-3.808 3.054-7.602 4.572-11.406a2.03 2.03 0 0 1 .138-.242c.011.167.017.334.016.501-.005 3.718.005 7.434-.005 11.151.883.012 1.766.003 2.65.005-.001-5.036-.003-10.073 0-15.11-1.225.003-2.45-.012-3.674.008zm24.964 4.438c-.658.368-1.076 1.023-1.357 1.697.003-.62-.001-1.24.003-1.86-.864-.004-1.728-.008-2.592.003.005 3.608 0 7.217.002 10.825h2.588v-5.18c-.021-.75.041-1.525.374-2.21.306-.648.896-1.213 1.641-1.297.611-.06 1.257.08 1.775.412.002-.864-.002-1.728.002-2.593-.79-.262-1.712-.227-2.436.203zm-18.835-.163c.003 3.61 0 7.219.002 10.827h2.606c.004-3.607-.006-7.215.004-10.822-.87-.017-1.741-.008-2.612-.005zm39.399 4.924c-.772-.44-1.66-.649-2.404-1.14-.435-.273-.558-.87-.38-1.326.223-.46.763-.666 1.253-.684a4.667 4.667 0 0 1 2.757.804V9.518c-1.15-.43-2.42-.585-3.634-.374-1.025.18-2.032.707-2.612 1.584-.507.753-.572 1.723-.362 2.585a2.68 2.68 0 0 0 .98 1.47c.68.514 1.492.801 2.266 1.145.412.191.848.386 1.146.74.318.46.221 1.21-.314 1.472-.559.265-1.211.26-1.811.165a5.783 5.783 0 0 1-2.382-1.015c-.01.835 0 1.67-.004 2.505.838.368 1.756.546 2.668.605 1.285.047 2.683-.2 3.653-1.096 1.016-.886 1.26-2.457.683-3.646-.307-.635-.896-1.075-1.503-1.412zm11.522-4.605c-1.196-.596-2.586-.682-3.896-.522-1.057.134-2.094.53-2.901 1.228-.984.837-1.562 2.068-1.731 3.326-.162 1.259-.107 2.584.412 3.762a4.836 4.836 0 0 0 2.667 2.554c1.168.455 2.468.505 3.697.309 1.258-.205 2.45-.858 3.228-1.863.831-1.037 1.19-2.38 1.187-3.688.018-.876-.092-1.764-.408-2.587-.404-1.074-1.212-2.004-2.255-2.519zm-.113 6.191c-.1.57-.3 1.138-.679 1.59-.381.453-.948.73-1.534.814-.628.093-1.29.049-1.877-.201-.634-.265-1.126-.807-1.384-1.43-.312-.743-.374-1.565-.312-2.36.06-.769.281-1.558.796-2.156.47-.559 1.19-.867 1.916-.908.74-.05 1.533.119 2.103.613.525.43.816 1.075.95 1.724.15.761.148 1.549.02 2.314zM82.017 9.56c-1.169-.525-2.498-.596-3.758-.438-1.323.165-2.61.78-3.45 1.82-.768.93-1.14 2.125-1.212 3.31-.106 1.397.13 2.88.961 4.045.708 1.006 1.825 1.698 3.033 1.952a7.64 7.64 0 0 0 3.073.003c1.18-.24 2.282-.884 3.014-1.835.714-.896 1.073-2.026 1.154-3.154.082-1.155-.036-2.35-.522-3.416a4.61 4.61 0 0 0-2.293-2.287zm-.243 7.259c-.25.557-.71 1.027-1.29 1.25-.677.257-1.44.272-2.139.093a2.611 2.611 0 0 1-1.645-1.34c-.423-.833-.486-1.797-.399-2.71.08-.832.373-1.687 1.014-2.26.466-.429 1.1-.638 1.727-.673.789-.051 1.629.169 2.195.735.607.589.842 1.443.907 2.258.047.891.01 1.82-.37 2.647zm37.706-5.396V9.319c-.866.003-1.732-.007-2.597.005-.02-1.081-.003-2.163-.01-3.244-.866.258-1.727.532-2.597.777-.021.82-.002 1.641-.011 2.462-1.28 0-2.56.001-3.84-.002.016-.646-.046-1.297.048-1.94.078-.506.376-1.013.876-1.209.63-.255 1.335-.085 1.934.175-.003-.74.006-1.48-.005-2.22-1.26-.343-2.707-.276-3.826.443a3.537 3.537 0 0 0-1.48 1.995c-.278.896-.136 1.842-.18 2.761-.608-.004-1.215-.01-1.82.004.006.692.004 1.385.001 2.076.609.012 1.218-.002 1.827.01-.005 2.912-.002 5.824-.002 8.737h2.625v-8.74c1.281-.003 2.562-.002 3.843-.001.004 1.857-.004 3.713.003 5.57.012.865.16 1.79.741 2.472.503.605 1.3.881 2.07.937.811.057 1.65-.04 2.4-.362V17.9c-.576.38-1.37.53-1.997.185-.373-.204-.519-.64-.567-1.034-.08-.668-.029-1.341-.043-2.011 0-1.21.003-2.42-.001-3.63.87.004 1.739-.022 2.608.013z"/>
        <path fill="#F25022" d="M0 0v11.982h12.137V.001H.002z"/>
        <path fill="#02A4EF" d="M0 13.205v11.982h12.138v-11.98c-4.046-.003-8.092 0-12.137-.002z"/>
        <path fill="#FFB902" d="M13.378 13.206v11.98h12.137v-11.98H13.378z"/>
        <path fill="#80BA01" d="M13.377 0l.001 11.982h12.136c.002-3.994 0-7.987 0-11.981H13.378z"/>
    </g>
</svg>
